<svg width="28" height="26" viewBox="0 0 28 26" fill="none" xmlns="http://www.w3.org/2000/svg">
<path id="Mask" fill-rule="evenodd" clip-rule="evenodd" d="M3.30079 0C1.30544 0 0 1.30979 0 3.03065C0 4.71497 1.26759 6.06261 3.22423 6.06261H3.26207C5.29657 6.06261 6.56155 4.71497 6.56155 3.03065C6.52284 1.30979 5.29657 0 3.30079 0ZM27.2084 15.9393V26H21.3755V16.6136C21.3755 14.2567 20.5333 12.6472 18.4214 12.6472C16.8097 12.6472 15.8523 13.7308 15.4295 14.78C15.2759 15.155 15.2363 15.6757 15.2363 16.2016V25.9996H9.40298C9.40298 25.9996 9.48128 10.102 9.40298 8.45642H15.2368V10.9424C15.2313 10.9516 15.2247 10.9607 15.2182 10.9697L15.2182 10.9697C15.2109 10.9799 15.2036 10.9899 15.1981 10.9999H15.2368V10.9424C16.0119 9.74967 17.3944 8.04447 20.4938 8.04447C24.3313 8.04447 27.2084 10.5518 27.2084 15.9393ZM6.17788 26H0.346696V8.45642H6.17788V26Z" fill="#151C1F"/>
</svg>
