<svg width="43" height="43" viewBox="0 0 43 43" fill="none" xmlns="http://www.w3.org/2000/svg">
<path id="Vector" d="M16.7523 30.02L30.7574 21.1265L16.7523 12.2043V30.02ZM21.8392 42.0945C18.9542 42.0945 16.2369 41.5478 13.6872 40.4543C11.1375 39.3608 8.91018 37.8616 7.00513 35.9565C5.1001 34.0515 3.60086 31.8254 2.50739 29.2784C1.41392 26.7314 0.867188 24.0154 0.867188 21.1304C0.867188 18.2117 1.41392 15.4775 2.50739 12.9279C3.60086 10.3782 5.09862 8.15879 7.00067 6.26964C8.90269 4.38048 11.1279 2.8849 13.6764 1.78289C16.2248 0.680887 18.9423 0.129883 21.8289 0.129883C24.7492 0.129883 27.4853 0.680144 30.0372 1.78067C32.5892 2.88119 34.809 4.37476 36.6967 6.26138C38.5845 8.14801 40.0789 10.3665 41.1801 12.917C42.2812 15.4674 42.8318 18.2039 42.8318 21.1265C42.8318 24.014 42.2808 26.7325 41.1788 29.2819C40.0768 31.8313 38.5812 34.0573 36.6921 35.96C34.8029 37.8627 32.5848 39.3608 30.0378 40.4543C27.4907 41.5477 24.7578 42.0945 21.8392 42.0945V42.0945ZM21.8352 38.0835C26.552 38.0835 30.5574 36.4341 33.8513 33.1352C37.1453 29.8364 38.7923 25.8335 38.7923 21.1265C38.7923 16.4097 37.1453 12.4043 33.8513 9.11036C30.5574 5.81639 26.5472 4.1694 21.8209 4.1694C17.1283 4.1694 13.1314 5.81639 9.83005 9.11036C6.52875 12.4043 4.8781 16.4145 4.8781 21.1408C4.8781 25.8333 6.52754 29.8303 9.82641 33.1316C13.1253 36.4329 17.1282 38.0836 21.8352 38.0836V38.0835Z" fill="white"/>
</svg>
